<svg xmlns="http://www.w3.org/2000/svg" viewBox="0 0 666.667 666.667" width="288" height="288"><defs><clipPath id="a" clipPathUnits="userSpaceOnUse"><path d="M 0,500 H 500 V 0 H 0 Z"></path></clipPath><clipPath id="b" clipPathUnits="userSpaceOnUse"><path d="M 16.9545,462.068 H 479 V 36.3058 H 16.9545 Z"></path></clipPath><clipPath id="c" clipPathUnits="userSpaceOnUse"><path d="M 0,500 H 500 V 0 H 0 Z"></path></clipPath><clipPath id="d" clipPathUnits="userSpaceOnUse"><path d="M 0,500 H 500 V 0 H 0 Z"></path></clipPath><clipPath id="e" clipPathUnits="userSpaceOnUse"><path d="M 116.139,425 H 235.158 V 121.462 H 116.139 Z"></path></clipPath><clipPath id="f" clipPathUnits="userSpaceOnUse"><path d="M 0,500 H 500 V 0 H 0 Z"></path></clipPath><clipPath id="g" clipPathUnits="userSpaceOnUse"><path d="M 0,500 H 500 V 0 H 0 Z"></path></clipPath></defs><g transform="matrix(1.33333 0 0 -1.33333 0 666.667)"><g clip-path="url(#a)"><path fill="#95a2a9" d="m 0,0 c -2.808,7.763 -6.034,15.326 -9.604,22.596 -31.657,64.475 -90.652,108.196 -163.283,119.69 -3.131,0.496 -6.271,0.931 -9.419,1.31 -59.279,7.131 -142.277,-1.768 -176.112,-56.567 -17.574,-28.461 -10.363,-64.348 -29,-92.04 -24.127,-35.85 -55.148,-53.775 -60.894,-109.789 -4.227,-41.213 -2.251,-85.744 26.885,-118.62 34.34,-38.747 93.269,-52.087 143.605,-44.653 48.86,7.217 92.6,31.34 135.337,54.003 40.559,21.508 86.954,37.129 119.816,70.035 C 18.774,-112.536 18.739,-51.827 0,0" transform="translate(466.948 316.348)" class="color5ae4a7 svgShape"></path><g clip-path="url(#b)" opacity=".7"><path fill="#ffffff" d="m 0,0 c -2.808,7.763 -6.034,15.326 -9.604,22.596 -31.657,64.475 -90.652,108.196 -163.283,119.69 -3.131,0.496 -6.271,0.931 -9.419,1.31 -59.279,7.131 -142.277,-1.768 -176.112,-56.567 -17.574,-28.461 -10.363,-64.348 -29,-92.04 -24.127,-35.85 -55.148,-53.775 -60.894,-109.789 -4.227,-41.213 -2.251,-85.744 26.885,-118.62 34.34,-38.747 93.269,-52.087 143.605,-44.653 48.86,7.217 92.6,31.34 135.337,54.003 40.559,21.508 86.954,37.129 119.816,70.035 C 18.774,-112.536 18.739,-51.827 0,0" transform="translate(466.948 316.348)" class="colorfff svgShape"></path></g></g><g clip-path="url(#c)"><path fill="#c8cfd2" d="M 0,0 C 3.971,-1.735 13.687,-1.516 13.694,-1.516 13.795,-1.514 11.606,4.843 11.422,5.229 9.29,9.688 2.55,17.05 -2.936,16.31 -6.887,15.775 -9.084,11.821 -8.192,8.101 -7.281,4.301 -3.383,1.479 0,0" transform="translate(68.546 333.53)" class="colorcdcdcd svgShape"></path><path fill="#c8cfd2" d="m 0,0 c 0.085,-0.054 1.767,6.456 1.826,6.879 0.682,4.895 -0.879,14.754 -5.863,17.162 -3.59,1.734 -7.604,-0.352 -8.912,-3.946 -1.336,-3.672 0.358,-8.177 2.364,-11.276 C -8.23,5.181 -0.006,0.004 0,0" transform="translate(166.81 331.394)" class="colorcdcdcd svgShape"></path><path fill="#c8cfd2" d="m 0,0 c -5.503,0.592 -12.042,-6.949 -14.053,-11.464 -0.173,-0.391 -2.19,-6.805 -2.088,-6.804 0,0 0.095,0.001 0.118,0.001 -1.042,-1.182 -2.145,-2.462 -3.322,-3.885 -2.153,-2.644 -4.561,-5.652 -6.961,-9.102 -2.407,-3.441 -4.926,-7.248 -7.216,-11.497 -2.303,-4.257 -4.507,-8.851 -6.166,-13.879 -0.019,-0.057 -0.031,-0.119 -0.049,-0.175 0.028,1.62 -0.044,6.157 -0.089,6.504 -0.635,4.902 -4.743,13.999 -10.186,15.005 -3.921,0.725 -7.242,-2.347 -7.554,-6.16 -0.319,-3.894 2.504,-7.792 5.257,-10.251 3.105,-2.773 11.723,-5.459 12.41,-5.671 -1.536,-4.803 -2.722,-9.856 -3.641,-15.036 -0.528,-2.961 -0.968,-5.96 -1.372,-8.971 -0.02,1.402 -0.049,2.656 -0.072,2.831 -0.636,4.902 -4.744,13.998 -10.186,15.004 -3.921,0.725 -7.242,-2.346 -7.555,-6.159 -0.319,-3.895 2.505,-7.792 5.258,-10.252 2.794,-2.495 10.095,-4.933 12.036,-5.552 -0.142,-1.157 -0.298,-2.311 -0.436,-3.468 -0.664,-5.555 -1.301,-11.101 -2.094,-16.521 -0.279,-1.911 -0.623,-3.781 -0.961,-5.655 -0.02,1.246 -0.047,2.295 -0.067,2.454 -0.636,4.902 -4.743,13.999 -10.187,15.005 -3.921,0.725 -7.241,-2.347 -7.553,-6.161 -0.32,-3.893 2.504,-7.791 5.257,-10.25 2.666,-2.381 9.385,-4.692 11.688,-5.439 -0.404,-1.907 -0.805,-3.819 -1.282,-5.65 -0.355,-1.242 -0.609,-2.464 -1.034,-3.692 -0.396,-1.225 -0.787,-2.438 -1.174,-3.638 -0.832,-2.286 -1.676,-4.648 -2.543,-6.858 -0.591,-1.541 -1.183,-2.998 -1.775,-4.468 0.3,1.897 0.807,5.627 0.814,5.942 0.076,3.284 -1.09,8.621 -3.41,12.373 0.014,0.485 -0.014,0.969 -0.091,1.449 -0.607,3.777 -4.156,6.582 -8.009,5.556 -5.349,-1.424 -8.741,-10.812 -8.994,-15.748 -0.015,-0.291 0.176,-3.468 0.328,-5.47 -0.268,1.163 -0.516,2.295 -0.809,3.49 -0.56,2.365 -1.19,4.709 -1.857,7.234 -0.365,1.208 -0.735,2.428 -1.108,3.659 -0.343,1.23 -0.862,2.485 -1.292,3.743 -1.058,2.891 -2.27,5.771 -3.556,8.645 2.071,0.496 9.397,2.363 12.339,4.621 2.928,2.247 6.034,5.923 6.006,9.83 -0.027,3.826 -3.109,7.137 -7.074,6.706 -5.502,-0.597 -10.278,-9.363 -11.276,-14.204 -0.063,-0.302 -0.389,-3.855 -0.53,-5.811 -0.786,1.722 -1.562,3.444 -2.415,5.159 -2.459,4.953 -5.102,9.89 -7.718,14.827 -0.802,1.512 -1.582,3.027 -2.37,4.542 0.739,0.168 9.495,2.201 12.79,4.728 2.928,2.248 6.034,5.924 6.007,9.832 -0.028,3.825 -3.11,7.136 -7.075,6.705 -5.502,-0.598 -10.277,-9.364 -11.276,-14.204 -0.075,-0.364 -0.537,-5.479 -0.591,-6.785 -1.732,3.337 -3.429,6.677 -4.967,10.038 -2.128,4.636 -3.962,9.301 -5.402,13.952 0.344,0.078 9.492,2.157 12.867,4.746 2.929,2.247 6.035,5.924 6.007,9.831 -0.027,3.826 -3.11,7.136 -7.074,6.706 -5.503,-0.598 -10.277,-9.363 -11.276,-14.203 -0.066,-0.319 -0.422,-4.217 -0.547,-6.073 -0.173,-0.019 -0.141,-0.015 -0.314,-0.034 -1.484,5.002 -2.292,10.034 -2.816,14.781 -0.308,2.749 -0.45,5.394 -0.529,7.97 1.743,0.212 9.701,1.272 12.996,3.267 3.157,1.912 6.648,5.225 7.05,9.111 0.393,3.805 -2.307,7.435 -6.295,7.442 -5.535,0.01 -11.243,-8.178 -12.768,-12.879 -0.083,-0.255 -0.637,-2.948 -1.014,-4.914 -0.018,1.163 -0.058,2.362 -0.054,3.478 0.008,4.185 0.273,8.017 0.535,11.409 0.164,1.928 0.351,3.668 0.543,5.294 1.602,1.101 8.004,5.619 9.972,8.849 1.922,3.152 3.493,7.701 2.059,11.335 -1.405,3.558 -5.474,5.535 -9.016,3.705 -4.917,-2.542 -6.21,-12.44 -5.397,-17.315 0.071,-0.421 1.927,-6.884 2.011,-6.827 0,0 0.079,0.053 0.098,0.066 -0.217,-1.56 -0.431,-3.237 -0.627,-5.072 -0.337,-3.393 -0.686,-7.231 -0.784,-11.433 -0.11,-4.197 -0.111,-8.762 0.323,-13.57 0.428,-4.82 1.123,-9.868 2.513,-14.977 0.017,-0.058 0.04,-0.116 0.056,-0.173 -0.87,1.368 -3.433,5.111 -3.662,5.376 -3.234,3.737 -11.679,9.058 -16.773,6.896 -3.671,-1.559 -4.746,-5.953 -2.903,-9.306 1.882,-3.424 6.387,-5.117 10.04,-5.649 4.12,-0.601 12.79,1.914 13.479,2.116 1.368,-4.853 3.167,-9.722 5.259,-14.55 1.192,-2.761 2.479,-5.505 3.804,-8.24 -0.791,1.159 -1.506,2.189 -1.621,2.322 -3.235,3.738 -11.681,9.059 -16.774,6.895 -3.671,-1.558 -4.746,-5.952 -2.903,-9.305 1.882,-3.424 6.388,-5.117 10.041,-5.65 3.706,-0.539 11.141,1.455 13.101,2.01 0.52,-1.044 1.027,-2.092 1.55,-3.134 2.511,-4.999 5.038,-9.977 7.367,-14.935 0.822,-1.747 1.566,-3.497 2.318,-5.246 -0.704,1.028 -1.305,1.888 -1.41,2.01 -3.233,3.737 -11.679,9.059 -16.773,6.895 -3.671,-1.559 -4.745,-5.953 -2.903,-9.306 1.883,-3.423 6.388,-5.116 10.041,-5.649 3.537,-0.515 10.416,1.265 12.749,1.912 0.715,-1.814 1.436,-3.629 2.047,-5.42 0.39,-1.231 0.851,-2.391 1.174,-3.649 0.346,-1.241 0.689,-2.467 1.028,-3.683 0.567,-2.365 1.167,-4.802 1.663,-7.123 0.357,-1.61 0.667,-3.153 0.984,-4.706 -0.797,1.748 -2.431,5.139 -2.6,5.406 -2.63,4.185 -10.171,10.724 -15.535,9.357 -3.864,-0.986 -5.593,-5.165 -4.279,-8.758 1.342,-3.67 5.539,-6.026 9.069,-7.106 3.886,-1.187 12.492,-0.102 13.566,0.041 0.516,-2.571 0.993,-5.077 1.405,-7.449 1.435,-8.14 2.326,-14.981 2.885,-19.805 h 3.751 c -0.015,0.11 -0.028,0.208 -0.043,0.321 -0.671,4.875 -1.726,11.82 -3.369,20.087 -0.513,2.612 -1.114,5.394 -1.757,8.246 0.647,0.257 4.317,1.741 7.568,3.558 2.833,-3.067 10.092,-6.658 11.032,-7.115 -0.988,-2.429 -1.973,-4.782 -2.937,-6.987 -3.294,-7.582 -6.325,-13.779 -8.52,-18.11 h 4.117 c 2.034,4.296 4.638,10.021 7.424,16.833 1.013,2.463 2.048,5.115 3.083,7.848 1.042,-0.219 9.56,-1.949 13.531,-1.053 3.6,0.815 7.961,2.851 9.572,6.411 1.578,3.485 0.166,7.783 -3.614,9.052 -5.246,1.763 -13.255,-4.196 -16.189,-8.173 -0.173,-0.234 -1.767,-2.989 -2.744,-4.745 0.417,1.119 0.835,2.201 1.25,3.358 0.838,2.282 1.606,4.585 2.442,7.058 0.362,1.209 0.727,2.431 1.096,3.664 0.392,1.215 0.651,2.548 0.986,3.833 0.713,2.997 1.29,6.067 1.803,9.174 2.001,-0.729 9.141,-3.213 12.84,-2.953 3.683,0.258 8.302,1.611 10.434,4.885 2.087,3.206 1.343,7.668 -2.201,9.496 -4.92,2.537 -13.738,-2.139 -17.241,-5.626 -0.219,-0.217 -2.451,-3.001 -3.648,-4.554 0.294,1.869 0.597,3.734 0.832,5.635 0.681,5.488 1.2,11.064 1.742,16.624 0.165,1.704 0.35,3.398 0.529,5.096 0.709,-0.267 9.133,-3.403 13.276,-3.112 3.682,0.258 8.301,1.612 10.434,4.886 2.087,3.206 1.342,7.668 -2.201,9.495 -4.919,2.537 -13.739,-2.139 -17.241,-5.626 -0.264,-0.262 -3.471,-4.273 -4.236,-5.333 0.395,3.739 0.823,7.461 1.395,11.113 0.781,5.04 1.826,9.943 3.19,14.617 0.33,-0.126 9.107,-3.438 13.351,-3.14 3.682,0.258 8.301,1.611 10.433,4.886 2.088,3.205 1.343,7.667 -2.201,9.495 -4.919,2.537 -13.737,-2.14 -17.24,-5.626 -0.23,-0.228 -2.676,-3.281 -3.805,-4.761 -0.155,0.08 -0.126,0.066 -0.281,0.146 1.521,4.99 3.623,9.631 5.804,13.879 1.26,2.463 2.601,4.747 3.956,6.939 1.571,-0.784 8.793,-4.29 12.641,-4.445 3.689,-0.147 8.428,0.69 10.907,3.71 2.427,2.958 2.177,7.475 -1.145,9.68 -4.61,3.063 -13.889,-0.618 -17.754,-3.698 -0.21,-0.168 -2.158,-2.107 -3.557,-3.54 0.627,0.98 1.255,2.004 1.874,2.931 2.315,3.487 4.65,6.537 6.74,9.222 1.201,1.517 2.316,2.864 3.373,4.115 1.944,0.034 9.776,0.272 13.2,1.879 3.341,1.569 7.162,4.496 7.97,8.319 C 6.268,-4.321 3.965,-0.427 0,0" transform="translate(195.806 366.6)" class="colorcdcdcd svgShape"></path><path fill="#c8cfd2" d="m 0,0 c 3.971,-1.735 13.687,-1.517 13.694,-1.516 0.101,0.002 -2.088,6.36 -2.272,6.745 C 9.29,9.688 2.55,17.051 -2.936,16.31 -6.887,15.775 -9.084,11.82 -8.192,8.101 -7.281,4.301 -3.383,1.479 0,0" transform="translate(231.064 190.013)" class="colorcdcdcd svgShape"></path><path fill="#c8cfd2" d="m 0,0 c 0.085,-0.054 1.767,6.456 1.826,6.879 0.681,4.895 -0.88,14.755 -5.863,17.162 -3.59,1.734 -7.605,-0.352 -8.912,-3.946 -1.337,-3.672 0.357,-8.177 2.363,-11.277 C -8.23,5.181 -0.007,0.004 0,0" transform="translate(329.328 187.876)" class="colorcdcdcd svgShape"></path><path fill="#c8cfd2" d="m 0,0 c -5.503,0.592 -12.042,-6.949 -14.053,-11.464 -0.174,-0.39 -2.19,-6.805 -2.088,-6.804 0,0 0.094,0 0.118,0.001 -1.042,-1.182 -2.145,-2.462 -3.322,-3.884 -2.152,-2.645 -4.56,-5.653 -6.961,-9.103 -2.407,-3.441 -4.925,-7.249 -7.216,-11.498 -2.302,-4.256 -4.506,-8.85 -6.166,-13.878 -0.019,-0.057 -0.031,-0.118 -0.049,-0.175 0.028,1.62 -0.044,6.157 -0.089,6.504 -0.635,4.902 -4.743,13.999 -10.186,15.005 -3.922,0.725 -7.242,-2.348 -7.554,-6.16 -0.32,-3.895 2.503,-7.792 5.257,-10.251 3.105,-2.773 11.723,-5.459 12.411,-5.671 -1.537,-4.803 -2.723,-9.855 -3.642,-15.035 -0.528,-2.962 -0.969,-5.96 -1.372,-8.973 -0.02,1.404 -0.049,2.657 -0.072,2.832 -0.635,4.902 -4.744,13.998 -10.186,15.004 -3.922,0.725 -7.242,-2.346 -7.555,-6.16 -0.319,-3.894 2.505,-7.791 5.258,-10.251 2.794,-2.495 10.095,-4.933 12.036,-5.552 -0.142,-1.157 -0.298,-2.311 -0.435,-3.468 -0.664,-5.555 -1.303,-11.101 -2.096,-16.521 -0.277,-1.91 -0.623,-3.781 -0.96,-5.654 -0.02,1.245 -0.047,2.294 -0.067,2.453 -0.635,4.902 -4.743,13.999 -10.187,15.005 -3.921,0.725 -7.241,-2.347 -7.553,-6.161 -0.32,-3.893 2.504,-7.791 5.257,-10.25 2.665,-2.381 9.385,-4.692 11.688,-5.439 -0.404,-1.907 -0.805,-3.819 -1.281,-5.65 -0.356,-1.242 -0.611,-2.463 -1.035,-3.692 -0.395,-1.225 -0.787,-2.437 -1.174,-3.638 -0.832,-2.285 -1.675,-4.649 -2.543,-6.858 -0.591,-1.541 -1.183,-2.998 -1.776,-4.468 0.3,1.898 0.808,5.626 0.815,5.943 0.076,3.283 -1.09,8.62 -3.41,12.372 0.014,0.484 -0.014,0.969 -0.091,1.449 -0.608,3.777 -4.156,6.582 -8.009,5.556 -5.349,-1.424 -8.74,-10.812 -8.994,-15.748 -0.016,-0.29 0.176,-3.468 0.329,-5.471 -0.27,1.164 -0.518,2.296 -0.81,3.49 -0.56,2.366 -1.189,4.71 -1.857,7.236 -0.365,1.207 -0.734,2.426 -1.108,3.658 -0.342,1.23 -0.863,2.485 -1.292,3.742 -1.057,2.892 -2.27,5.772 -3.555,8.646 2.069,0.496 9.395,2.363 12.338,4.621 2.928,2.247 6.034,5.923 6.007,9.831 -0.029,3.825 -3.11,7.135 -7.075,6.705 -5.503,-0.598 -10.278,-9.363 -11.276,-14.203 -0.063,-0.303 -0.389,-3.856 -0.529,-5.812 -0.787,1.722 -1.564,3.443 -2.415,5.159 -2.46,4.953 -5.103,9.89 -7.718,14.827 -0.803,1.512 -1.583,3.028 -2.371,4.542 0.739,0.168 9.495,2.201 12.79,4.729 2.928,2.247 6.035,5.923 6.007,9.83 -0.028,3.826 -3.11,7.137 -7.075,6.706 -5.503,-0.598 -10.277,-9.363 -11.276,-14.203 -0.075,-0.365 -0.537,-5.48 -0.591,-6.786 -1.732,3.337 -3.429,6.678 -4.967,10.039 -2.128,4.635 -3.962,9.3 -5.402,13.951 0.344,0.078 9.492,2.157 12.867,4.746 2.929,2.247 6.035,5.924 6.007,9.831 -0.027,3.825 -3.11,7.137 -7.074,6.706 -5.503,-0.597 -10.277,-9.364 -11.276,-14.204 -0.066,-0.318 -0.422,-4.216 -0.547,-6.072 -0.173,-0.019 -0.141,-0.016 -0.314,-0.034 -1.484,5.003 -2.292,10.034 -2.816,14.781 -0.308,2.749 -0.45,5.394 -0.529,7.97 1.743,0.213 9.701,1.271 12.996,3.266 3.158,1.912 6.649,5.226 7.05,9.112 0.393,3.805 -2.307,7.435 -6.295,7.442 -5.535,0.01 -11.243,-8.178 -12.768,-12.879 -0.083,-0.256 -0.637,-2.948 -1.014,-4.914 -0.018,1.162 -0.058,2.362 -0.054,3.478 0.008,4.185 0.273,8.017 0.535,11.409 0.164,1.928 0.351,3.668 0.543,5.294 1.602,1.101 8.004,5.62 9.972,8.849 1.922,3.152 3.493,7.702 2.059,11.335 -1.405,3.559 -5.475,5.535 -9.016,3.704 -4.917,-2.542 -6.21,-12.438 -5.397,-17.314 0.071,-0.421 1.927,-6.884 2.011,-6.827 0,0 0.079,0.053 0.098,0.066 -0.217,-1.56 -0.431,-3.237 -0.627,-5.072 -0.337,-3.394 -0.686,-7.231 -0.784,-11.433 -0.11,-4.198 -0.11,-8.762 0.323,-13.57 0.428,-4.82 1.124,-9.868 2.513,-14.977 0.017,-0.058 0.04,-0.116 0.056,-0.173 -0.87,1.368 -3.433,5.111 -3.662,5.377 -3.234,3.737 -11.679,9.057 -16.773,6.895 -3.671,-1.56 -4.746,-5.953 -2.903,-9.307 1.882,-3.423 6.387,-5.116 10.04,-5.649 4.12,-0.6 12.79,1.914 13.479,2.117 1.368,-4.853 3.167,-9.722 5.258,-14.55 1.192,-2.76 2.48,-5.505 3.805,-8.24 -0.79,1.158 -1.506,2.189 -1.621,2.322 -3.235,3.738 -11.681,9.058 -16.774,6.895 -3.671,-1.559 -4.746,-5.952 -2.903,-9.305 1.882,-3.425 6.388,-5.117 10.041,-5.65 3.706,-0.539 11.141,1.455 13.101,2.01 0.52,-1.044 1.027,-2.092 1.55,-3.134 2.511,-4.999 5.038,-9.977 7.367,-14.935 0.822,-1.747 1.566,-3.498 2.318,-5.247 -0.703,1.029 -1.305,1.89 -1.409,2.011 -3.235,3.737 -11.68,9.059 -16.774,6.895 -3.671,-1.558 -4.745,-5.953 -2.903,-9.305 1.883,-3.424 6.388,-5.117 10.041,-5.65 3.537,-0.515 10.416,1.264 12.749,1.912 0.715,-1.814 1.436,-3.629 2.047,-5.419 0.39,-1.233 0.851,-2.392 1.175,-3.651 0.345,-1.239 0.688,-2.467 1.027,-3.682 0.567,-2.365 1.167,-4.801 1.663,-7.122 0.357,-1.612 0.667,-3.155 0.983,-4.707 -0.796,1.748 -2.43,5.138 -2.599,5.407 -2.63,4.183 -10.171,10.722 -15.535,9.356 -3.864,-0.985 -5.593,-5.165 -4.279,-8.759 1.342,-3.669 5.539,-6.025 9.069,-7.105 3.886,-1.188 12.492,-0.102 13.566,0.041 0.516,-2.571 0.993,-5.077 1.405,-7.449 1.436,-8.141 2.326,-14.982 2.884,-19.805 h 3.752 c -0.015,0.11 -0.028,0.208 -0.043,0.32 -0.672,4.875 -1.726,11.822 -3.369,20.087 -0.513,2.614 -1.114,5.396 -1.757,8.246 0.647,0.257 4.317,1.742 7.569,3.559 2.833,-3.067 10.091,-6.658 11.031,-7.114 -0.988,-2.43 -1.973,-4.783 -2.937,-6.989 -3.294,-7.582 -6.326,-13.778 -8.519,-18.109 h 4.116 c 2.034,4.296 4.639,10.021 7.424,16.833 1.013,2.463 2.048,5.114 3.084,7.848 1.041,-0.218 9.559,-1.949 13.53,-1.052 3.601,0.813 7.961,2.85 9.572,6.41 1.578,3.485 0.166,7.782 -3.614,9.052 -5.246,1.763 -13.255,-4.195 -16.189,-8.172 -0.173,-0.235 -1.767,-2.99 -2.745,-4.745 0.418,1.118 0.836,2.2 1.251,3.357 0.838,2.281 1.607,4.584 2.443,7.059 0.361,1.209 0.726,2.43 1.095,3.663 0.391,1.215 0.651,2.548 0.986,3.834 0.713,2.995 1.29,6.066 1.804,9.173 2,-0.729 9.14,-3.213 12.839,-2.953 3.683,0.258 8.302,1.611 10.434,4.885 2.087,3.206 1.343,7.668 -2.201,9.496 -4.919,2.538 -13.737,-2.139 -17.241,-5.626 -0.219,-0.217 -2.452,-3.001 -3.648,-4.554 0.294,1.87 0.597,3.734 0.832,5.636 0.682,5.487 1.199,11.063 1.742,16.623 0.164,1.704 0.35,3.398 0.53,5.096 0.708,-0.266 9.133,-3.403 13.275,-3.112 3.683,0.259 8.301,1.611 10.434,4.886 2.087,3.206 1.342,7.668 -2.201,9.495 -4.919,2.537 -13.739,-2.14 -17.242,-5.625 -0.263,-0.263 -3.469,-4.274 -4.235,-5.334 0.395,3.738 0.823,7.461 1.395,11.112 0.781,5.041 1.826,9.944 3.19,14.617 0.33,-0.125 9.107,-3.437 13.351,-3.139 3.682,0.258 8.301,1.611 10.433,4.885 2.088,3.206 1.343,7.668 -2.201,9.497 -4.919,2.537 -13.737,-2.14 -17.24,-5.626 -0.231,-0.23 -2.675,-3.282 -3.805,-4.761 -0.154,0.08 -0.127,0.065 -0.281,0.145 1.521,4.99 3.623,9.631 5.804,13.879 1.26,2.463 2.6,4.746 3.956,6.94 1.571,-0.785 8.793,-4.291 12.641,-4.446 3.689,-0.147 8.428,0.691 10.907,3.71 2.427,2.957 2.177,7.475 -1.144,9.681 -4.611,3.062 -13.89,-0.619 -17.755,-3.699 -0.21,-0.168 -2.158,-2.107 -3.557,-3.539 0.627,0.979 1.255,2.003 1.874,2.929 2.315,3.488 4.65,6.538 6.74,9.223 1.201,1.517 2.316,2.864 3.374,4.114 1.943,0.035 9.774,0.273 13.199,1.88 3.341,1.57 7.162,4.496 7.97,8.32 C 6.269,-4.32 3.965,-0.427 0,0" transform="translate(358.324 223.081)" class="colorcdcdcd svgShape"></path><path fill="#c8cfd2" d="m 0,0 c 4.12,-1.344 13.769,-0.188 13.776,-0.187 0.1,0.012 -2.692,6.127 -2.912,6.494 C 8.311,10.539 0.892,17.217 -4.497,15.95 -8.377,15.036 -10.183,10.889 -8.936,7.272 -7.662,3.578 -3.51,1.145 0,0" transform="translate(62.09 183.798)" class="colorcdcdcd svgShape"></path><path fill="#c8cfd2" d="m 0,0 c 0.09,-0.046 1.135,6.596 1.153,7.023 0.206,4.938 -2.299,14.6 -7.492,16.516 -3.741,1.379 -7.535,-1.084 -8.49,-4.789 -0.975,-3.783 1.146,-8.104 3.441,-10.994 C -8.692,4.362 -0.007,0.003 0,0" transform="translate(160.102 191.156)" class="colorcdcdcd svgShape"></path><path fill="#c8cfd2" d="m 0,0 c -5.535,0.059 -11.315,-8.079 -12.881,-12.767 -0.135,-0.405 -1.523,-6.984 -1.421,-6.973 0,0 0.094,0.01 0.116,0.012 -0.922,-1.277 -1.897,-2.658 -2.931,-4.187 -1.887,-2.84 -3.993,-6.066 -6.049,-9.732 -2.064,-3.658 -4.204,-7.69 -6.073,-12.14 -1.881,-4.459 -3.632,-9.244 -4.797,-14.409 -0.014,-0.059 -0.02,-0.121 -0.033,-0.179 -0.128,1.615 -0.638,6.123 -0.716,6.465 -1.106,4.817 -6.072,13.475 -11.587,13.952 -3.973,0.343 -6.982,-3.035 -6.924,-6.86 0.058,-3.908 3.244,-7.515 6.222,-9.697 3.358,-2.461 12.196,-4.301 12.9,-4.446 -1.066,-4.929 -1.758,-10.072 -2.173,-15.317 -0.24,-2.998 -0.389,-6.026 -0.5,-9.062 -0.155,1.394 -0.305,2.639 -0.345,2.811 -1.105,4.817 -6.073,13.475 -11.587,13.951 -3.972,0.343 -6.981,-3.035 -6.924,-6.86 0.057,-3.908 3.245,-7.514 6.223,-9.696 3.021,-2.214 10.524,-3.935 12.515,-4.364 -0.03,-1.166 -0.073,-2.329 -0.098,-3.495 -0.125,-5.592 -0.225,-11.174 -0.491,-16.646 -0.092,-1.928 -0.255,-3.824 -0.41,-5.72 -0.14,1.237 -0.268,2.279 -0.304,2.435 -1.106,4.818 -6.072,13.476 -11.587,13.951 -3.973,0.344 -6.982,-3.034 -6.924,-6.861 0.058,-3.905 3.245,-7.513 6.222,-9.694 2.883,-2.114 9.794,-3.764 12.159,-4.285 -0.219,-1.938 -0.433,-3.879 -0.731,-5.748 -0.233,-1.271 -0.369,-2.51 -0.673,-3.774 -0.275,-1.258 -0.548,-2.503 -0.818,-3.735 -0.607,-2.355 -1.218,-4.788 -1.869,-7.072 -0.439,-1.59 -0.888,-3.097 -1.335,-4.618 0.115,1.918 0.26,5.679 0.237,5.993 -0.242,3.276 -1.917,8.476 -4.589,11.986 -0.032,0.484 -0.107,0.963 -0.23,1.433 -0.969,3.702 -4.772,6.151 -8.508,4.757 -5.186,-1.933 -7.656,-11.604 -7.432,-16.542 0.013,-0.291 0.51,-3.435 0.855,-5.414 -0.38,1.133 -0.736,2.235 -1.142,3.397 -0.786,2.299 -1.639,4.572 -2.547,7.021 -0.48,1.166 -0.966,2.345 -1.456,3.535 -0.46,1.191 -1.098,2.39 -1.647,3.6 -1.332,2.776 -2.817,5.525 -4.374,8.262 2.013,0.693 9.124,3.258 11.835,5.79 2.697,2.519 5.434,6.478 5.029,10.365 -0.396,3.805 -3.783,6.803 -7.688,5.991 -5.419,-1.126 -9.326,-10.311 -9.852,-15.226 -0.033,-0.306 -0.015,-3.875 0.033,-5.835 -0.949,1.638 -1.888,3.277 -2.901,4.902 -2.926,4.692 -6.034,9.351 -9.113,14.013 -0.945,1.427 -1.868,2.86 -2.798,4.292 0.718,0.239 9.238,3.106 12.273,5.941 2.698,2.519 5.435,6.478 5.03,10.364 -0.397,3.805 -3.784,6.803 -7.688,5.991 -5.419,-1.126 -9.326,-10.311 -9.853,-15.225 -0.039,-0.37 -0.005,-5.505 0.067,-6.811 -2.046,3.155 -4.057,6.316 -5.913,9.513 -2.566,4.407 -4.841,8.874 -6.723,13.364 0.335,0.111 9.239,3.064 12.349,5.966 2.698,2.52 5.435,6.479 5.029,10.365 -0.396,3.805 -3.784,6.803 -7.688,5.992 -5.419,-1.126 -9.325,-10.312 -9.852,-15.225 -0.035,-0.323 -0.013,-4.238 0.041,-6.098 -0.17,-0.035 -0.139,-0.028 -0.309,-0.063 -1.96,4.835 -3.25,9.765 -4.229,14.44 -0.572,2.706 -0.968,5.324 -1.297,7.881 1.715,0.38 9.534,2.202 12.621,4.506 2.958,2.208 6.113,5.843 6.138,9.75 0.023,3.825 -3.015,7.178 -6.985,6.799 -5.509,-0.524 -10.4,-9.225 -11.464,-14.051 -0.058,-0.263 -0.351,-2.996 -0.536,-4.989 -0.13,1.155 -0.286,2.345 -0.389,3.456 -0.396,4.167 -0.502,8.006 -0.569,11.408 -0.023,1.935 -0.004,3.684 0.03,5.321 1.488,1.25 7.424,6.366 9.071,9.771 1.608,3.322 2.734,8.002 0.955,11.48 -1.742,3.406 -5.983,4.982 -9.331,2.818 -4.649,-3.005 -4.981,-12.981 -3.701,-17.755 0.111,-0.412 2.582,-6.666 2.661,-6.601 0,0 0.073,0.061 0.09,0.075 -0.064,-1.574 -0.115,-3.263 -0.133,-5.109 -0.008,-3.41 0.015,-7.263 0.322,-11.455 0.297,-4.189 0.737,-8.733 1.632,-13.476 0.891,-4.756 2.071,-9.714 3.947,-14.664 0.022,-0.056 0.051,-0.111 0.073,-0.168 -0.999,1.279 -3.911,4.756 -4.164,4.998 -3.58,3.409 -12.499,7.889 -17.361,5.245 -3.503,-1.906 -4.149,-6.383 -1.991,-9.543 2.204,-3.226 6.852,-4.476 10.539,-4.654 4.158,-0.2 12.545,3.14 13.212,3.408 1.83,-4.699 4.09,-9.371 6.638,-13.974 1.453,-2.633 2.999,-5.24 4.582,-7.834 -0.899,1.076 -1.711,2.032 -1.838,2.154 -3.58,3.408 -12.5,7.889 -17.362,5.244 -3.502,-1.906 -4.148,-6.383 -1.99,-9.542 2.203,-3.226 6.851,-4.476 10.539,-4.654 3.741,-0.18 10.949,2.523 12.847,3.265 0.617,-0.99 1.223,-1.984 1.844,-2.97 2.982,-4.734 5.978,-9.443 8.774,-14.153 0.987,-1.661 1.897,-3.331 2.814,-4.999 -0.8,0.956 -1.481,1.753 -1.597,1.865 -3.58,3.407 -12.499,7.888 -17.361,5.244 -3.503,-1.906 -4.148,-6.384 -1.99,-9.543 2.204,-3.226 6.851,-4.477 10.538,-4.653 3.571,-0.172 10.246,2.263 12.505,3.132 0.887,-1.736 1.78,-3.473 2.561,-5.196 0.507,-1.188 1.079,-2.298 1.521,-3.519 0.464,-1.201 0.924,-2.389 1.379,-3.567 0.792,-2.299 1.625,-4.666 2.342,-6.929 0.511,-1.569 0.968,-3.074 1.434,-4.588 -0.963,1.663 -2.916,4.879 -3.11,5.13 -3.021,3.911 -11.158,9.691 -16.365,7.813 -3.751,-1.354 -5.068,-5.681 -3.414,-9.131 1.69,-3.522 6.095,-5.463 9.712,-6.196 3.984,-0.808 12.444,1.103 13.499,1.349 0.762,-2.508 1.479,-4.957 2.118,-7.278 2.214,-7.964 3.761,-14.687 4.782,-19.434 l 3.734,0.362 c -0.025,0.108 -0.047,0.204 -0.074,0.315 -1.138,4.787 -2.858,11.599 -5.292,19.667 -0.762,2.552 -1.629,5.263 -2.544,8.038 0.619,0.319 4.128,2.151 7.189,4.273 3.116,-2.779 10.688,-5.653 11.668,-6.017 -0.75,-2.512 -1.503,-4.95 -2.25,-7.238 -2.546,-7.864 -4.965,-14.325 -6.731,-18.848 l 4.097,0.398 c 1.61,4.472 3.649,10.422 5.764,17.471 0.772,2.549 1.545,5.289 2.312,8.109 1.058,-0.116 9.704,-1.017 13.569,0.259 3.505,1.157 7.648,3.605 8.909,7.303 1.234,3.621 -0.586,7.763 -4.471,8.661 -5.392,1.249 -12.788,-5.455 -15.325,-9.696 -0.149,-0.251 -1.47,-3.146 -2.273,-4.988 0.308,1.154 0.619,2.27 0.92,3.463 0.614,2.351 1.156,4.718 1.75,7.261 0.243,1.238 0.489,2.489 0.736,3.752 0.273,1.247 0.403,2.599 0.612,3.911 0.42,3.05 0.698,6.163 0.909,9.304 2.062,-0.532 9.409,-2.315 13.066,-1.7 3.639,0.613 8.107,2.405 9.913,5.87 1.768,3.393 0.597,7.762 -3.108,9.239 -5.141,2.05 -13.466,-3.456 -16.617,-7.264 -0.197,-0.237 -2.15,-3.224 -3.191,-4.885 0.112,1.89 0.233,3.774 0.284,5.69 0.148,5.527 0.126,11.127 0.129,16.713 0,1.712 0.021,3.416 0.035,5.124 0.731,-0.197 9.419,-2.505 13.514,-1.816 3.64,0.612 8.107,2.405 9.913,5.87 1.768,3.393 0.597,7.762 -3.107,9.239 -5.141,2.05 -13.467,-3.456 -16.617,-7.263 -0.238,-0.287 -3.042,-4.589 -3.701,-5.718 0.032,3.759 0.099,7.506 0.315,11.195 0.291,5.093 0.858,10.073 1.765,14.857 0.34,-0.093 9.396,-2.543 13.591,-1.837 3.641,0.613 8.107,2.405 9.913,5.871 1.769,3.391 0.597,7.761 -3.107,9.238 -5.142,2.051 -13.467,-3.456 -16.617,-7.264 -0.207,-0.25 -2.346,-3.524 -3.328,-5.105 -0.161,0.064 -0.132,0.053 -0.293,0.117 1.032,5.113 2.677,9.937 4.438,14.375 1.015,2.572 2.129,4.975 3.267,7.288 1.64,-0.629 9.165,-3.422 13.011,-3.204 3.686,0.21 8.322,1.501 10.498,4.745 2.131,3.179 1.445,7.651 -2.074,9.526 -4.885,2.602 -13.765,-1.956 -17.314,-5.396 -0.193,-0.186 -1.945,-2.305 -3.199,-3.866 0.53,1.036 1.056,2.115 1.582,3.098 1.968,3.694 3.997,6.955 5.818,9.829 1.049,1.626 2.029,3.075 2.961,4.422 1.932,0.221 9.703,1.214 12.957,3.144 3.173,1.885 6.694,5.167 7.129,9.05 C 6.656,-3.695 3.987,-0.042 0,0" transform="translate(185.565 228.995)" class="colorcdcdcd svgShape"></path></g><path fill="none" stroke="#24292b" stroke-linecap="round" stroke-linejoin="round" stroke-miterlimit="10" d="M 0,0 H 11" transform="translate(464 56)" class="colorStroke1a2e35 svgStroke"></path><path fill="none" stroke="#24292b" stroke-linecap="round" stroke-linejoin="round" stroke-miterlimit="10" d="M 0,0 H 413" transform="translate(40 56)" class="colorStroke1a2e35 svgStroke"></path><g clip-path="url(#d)"><path fill="#24292b" d="m 0,0 h -160.043 c -8.02,0 -14.522,6.502 -14.522,14.521 v 339.957 c 0,8.021 6.502,14.522 14.522,14.522 H 0 c 8.021,0 14.521,-6.501 14.521,-14.522 V 14.521 C 14.521,6.502 8.021,0 0,0" transform="translate(290.704 56)" class="color1a2e35 svgShape"></path><g clip-path="url(#e)" opacity=".3"><path fill="#ffffff" d="m 0,0 h -104.497 c -8.02,0 -14.522,-6.501 -14.522,-14.522 v -289.016 z" transform="translate(235.158 425)" class="colorfff svgShape"></path></g><path fill="#ffffff" stroke="#24292b" stroke-linecap="round" stroke-linejoin="round" stroke-miterlimit="10" d="M 296.816,77.902 H 124.548 v 322.039 h 172.268 z" class="colorfff svgShape colorStroke1a2e35 svgStroke"></path><path fill="none" stroke="#24292b" stroke-linecap="round" stroke-linejoin="round" stroke-miterlimit="10" stroke-width=".821" d="m 290.956,388.768 h -14.283 v 7.833 h 14.283 z" class="colorStroke1a2e35 svgStroke"></path><path fill="#24292b" stroke="#24292b" stroke-linecap="round" stroke-linejoin="round" stroke-miterlimit="10" stroke-width=".725" d="M287.812 388.768h-11.139v7.833h11.139zM292.938 390.959h-2.013v3.45h2.013z" class="color1a2e35 svgShape colorStroke1a2e35 svgStroke"></path><path fill="#24292b" stroke="#24292b" stroke-linecap="round" stroke-linejoin="round" stroke-miterlimit="10" stroke-width=".883" d="M131.045 394.17h-2.619v-4.489h2.619zM135.161 395.747h-2.619v-6.066h2.619zM139.276 397.609h-2.619v-7.928h2.619z" class="color1a2e35 svgShape colorStroke1a2e35 svgStroke"></path><path fill="#95a2a9" d="M 292.751,371.976 H 127.326 v 12.436 h 165.425 z" class="color5ae4a7 svgShape"></path></g><g clip-path="url(#f)"><path fill="#95a2a9" d="m 0,0 h -132.899 c -4.711,0 -8.531,3.819 -8.531,8.53 v 20.67 5.945 19.219 l 10.091,-10.688 H 0 c 4.711,0 8.53,-3.82 8.53,-8.531 V 8.53 C 8.53,3.819 4.711,0 0,0" transform="translate(276.037 310.391)" class="color5ae4a7 svgShape"></path><path fill="#ffffff" d="m 0,0 c 0,6.624 -5.37,11.994 -11.994,11.994 -6.624,0 -11.994,-5.37 -11.994,-11.994 0,-6.624 5.37,-11.994 11.994,-11.994 C -5.37,-11.994 0,-6.624 0,0" transform="translate(168.91 332.234)" class="colorfff svgShape"></path><path fill="none" stroke="#24292b" stroke-linecap="round" stroke-linejoin="round" stroke-miterlimit="10" stroke-width="2" d="M 0,0 H 24.856" transform="translate(175.039 344.904)" class="colorStroke1a2e35 svgStroke"></path><path fill="none" stroke="#24292b" stroke-linecap="round" stroke-linejoin="round" stroke-miterlimit="10" d="M 0,0 H 97.055" transform="translate(175.039 336.242)" class="colorStroke1a2e35 svgStroke"></path><path fill="none" stroke="#24292b" stroke-linecap="round" stroke-linejoin="round" stroke-miterlimit="10" d="M 0,0 H 97.055" transform="translate(175.039 329.086)" class="colorStroke1a2e35 svgStroke"></path><path fill="none" stroke="#24292b" stroke-linecap="round" stroke-linejoin="round" stroke-miterlimit="10" d="M 0,0 H 97.055" transform="translate(175.039 321.177)" class="colorStroke1a2e35 svgStroke"></path><path fill="#95a2a9" d="m 0,0 h -132.899 c -4.711,0 -8.531,3.819 -8.531,8.53 v 20.67 5.946 19.217 l 10.091,-10.687 H 0 c 4.711,0 8.53,-3.82 8.53,-8.53 V 8.53 C 8.53,3.819 4.711,0 0,0" transform="translate(276.037 191.611)" class="color5ae4a7 svgShape"></path><path fill="#ffffff" d="m 0,0 c 0,6.624 -5.37,11.994 -11.994,11.994 -6.624,0 -11.994,-5.37 -11.994,-11.994 0,-6.624 5.37,-11.994 11.994,-11.994 C -5.37,-11.994 0,-6.624 0,0" transform="translate(168.91 213.454)" class="colorfff svgShape"></path><path fill="none" stroke="#24292b" stroke-linecap="round" stroke-linejoin="round" stroke-miterlimit="10" stroke-width="2" d="M 0,0 H 24.856" transform="translate(175.039 226.124)" class="colorStroke1a2e35 svgStroke"></path><path fill="none" stroke="#24292b" stroke-linecap="round" stroke-linejoin="round" stroke-miterlimit="10" d="M 0,0 H 97.055" transform="translate(175.039 217.462)" class="colorStroke1a2e35 svgStroke"></path><path fill="none" stroke="#24292b" stroke-linecap="round" stroke-linejoin="round" stroke-miterlimit="10" d="M 0,0 H 97.055" transform="translate(175.039 210.307)" class="colorStroke1a2e35 svgStroke"></path><path fill="none" stroke="#24292b" stroke-linecap="round" stroke-linejoin="round" stroke-miterlimit="10" d="M 0,0 H 97.055" transform="translate(175.039 202.398)" class="colorStroke1a2e35 svgStroke"></path><path fill="#74858e" d="m 0,0 h 132.899 c 4.711,0 8.53,3.819 8.53,8.53 V 29.2 35.145 54.363 L 131.338,43.676 H 0 c -4.711,0 -8.53,-3.82 -8.53,-8.531 V 8.53 C -8.53,3.819 -4.711,0 0,0" transform="translate(146.127 119.998)" class="color818181 svgShape"></path><path fill="#ffffff" d="m 0,0 c 0,6.624 -5.37,11.994 -11.994,11.994 -6.624,0 -11.994,-5.37 -11.994,-11.994 0,-6.624 5.37,-11.994 11.994,-11.994 C -5.37,-11.994 0,-6.624 0,0" transform="translate(171.898 141.84)" class="colorfff svgShape"></path><path fill="none" stroke="#24292b" stroke-linecap="round" stroke-linejoin="round" stroke-miterlimit="10" stroke-width="2" d="M 0,0 H 45.836" transform="translate(178.028 154.51)" class="colorStroke1a2e35 svgStroke"></path><path fill="none" stroke="#24292b" stroke-linecap="round" stroke-linejoin="round" stroke-miterlimit="10" d="M 0,0 H 97.055" transform="translate(178.028 145.849)" class="colorStroke1a2e35 svgStroke"></path><path fill="none" stroke="#24292b" stroke-linecap="round" stroke-linejoin="round" stroke-miterlimit="10" d="M 0,0 H 97.055" transform="translate(178.028 138.693)" class="colorStroke1a2e35 svgStroke"></path><path fill="none" stroke="#24292b" stroke-linecap="round" stroke-linejoin="round" stroke-miterlimit="10" d="M 0,0 H 97.055" transform="translate(178.028 130.784)" class="colorStroke1a2e35 svgStroke"></path></g><g clip-path="url(#g)"><path fill="none" stroke="#ffffff" stroke-linecap="round" stroke-linejoin="round" stroke-miterlimit="10" d="m 0,0 c 0,3.549 -2.876,6.425 -6.425,6.425 -3.548,0 -6.425,-2.876 -6.425,-6.425 0,-3.549 2.877,-6.425 6.425,-6.425 C -2.876,-6.425 0,-3.549 0,0 Z" transform="translate(205.107 60.6)" class="colorStrokefff svgStroke"></path><path fill="#ffffff" d="m 0,0 -2.268,-7.841 c 0,0 -9.538,-6.111 -11.072,-10.598 -1.533,-4.488 0.498,-7.482 4.105,-7.376 3.606,0.106 9.121,1.378 11.251,4.496 2.129,3.116 3.704,6.216 6.143,8.232 2.44,2.015 5.777,1.836 6.731,7.139 0.955,5.303 -3.255,6.845 -6.601,7.302 C 4.944,1.811 0,0 0,0" transform="translate(369.535 76.707)" class="colorfff svgShape"></path><path fill="none" stroke="#24292b" stroke-linecap="round" stroke-linejoin="round" stroke-miterlimit="10" d="m 0,0 -2.268,-7.841 c 0,0 -9.538,-6.111 -11.072,-10.598 -1.533,-4.488 0.498,-7.482 4.105,-7.376 3.606,0.106 9.121,1.378 11.251,4.496 2.129,3.116 3.704,6.216 6.143,8.232 2.44,2.015 5.777,1.836 6.731,7.139 0.955,5.303 -3.255,6.845 -6.601,7.302 C 4.944,1.811 0,0 0,0 Z" transform="translate(369.535 76.707)" class="colorStroke1a2e35 svgStroke"></path><path fill="#24292b" d="m 0,0 c 0,0 -4.217,-9.266 -3.898,-20.085 0,0 -3.125,-16.473 0.832,-37.734 3.957,-21.262 11.961,-38.518 12.018,-40.46 0.057,-1.942 -0.751,-21.678 1.69,-29.103 2.439,-7.425 14.816,-41.21 14.816,-41.21 0,0 -0.693,-4.74 0.727,-5.809 1.419,-1.069 5.327,-1.786 6.151,-1.485 0.824,0.302 3.035,0.645 3.035,0.645 l 1.518,-4.398 c 0,0 0.84,-0.253 4.169,-0.155 3.329,0.098 6.038,2.398 6.038,2.398 0,0 5.955,24.053 9.643,40.265 3.688,16.211 5.466,40.696 5.466,40.696 0,0 7.946,31.885 9.031,51.629 1.085,19.745 -3.01,26.843 -3.01,26.843 0,0 -0.514,8.036 -3.517,15.723 C 61.706,5.445 55.93,3.609 34.464,6.587 12.998,9.565 7.238,7.174 5.32,6.285 3.403,5.396 0,0 0,0" transform="translate(343.408 249.166)" class="color1a2e35 svgShape"></path><path fill="none" stroke="#24292b" stroke-linecap="round" stroke-linejoin="round" stroke-miterlimit="10" d="m 0,0 c 0,0 -4.217,-9.266 -3.898,-20.085 0,0 -3.125,-16.473 0.832,-37.734 3.957,-21.262 11.961,-38.518 12.018,-40.46 0.057,-1.942 -0.751,-21.678 1.69,-29.103 2.439,-7.425 14.816,-41.21 14.816,-41.21 0,0 -0.693,-4.74 0.727,-5.809 1.419,-1.069 5.327,-1.786 6.151,-1.485 0.824,0.302 3.035,0.645 3.035,0.645 l 1.518,-4.398 c 0,0 0.84,-0.253 4.169,-0.155 3.329,0.098 6.038,2.398 6.038,2.398 0,0 5.955,24.053 9.643,40.265 3.688,16.211 5.466,40.696 5.466,40.696 0,0 7.946,31.885 9.031,51.629 1.085,19.745 -3.01,26.843 -3.01,26.843 0,0 -0.514,8.036 -3.517,15.723 C 61.706,5.445 55.93,3.609 34.464,6.587 12.998,9.565 7.238,7.174 5.32,6.285 3.403,5.396 0,0 0,0 Z" transform="translate(343.408 249.166)" class="colorStroke1a2e35 svgStroke"></path><path fill="none" stroke="#74858e" stroke-linecap="round" stroke-linejoin="round" stroke-miterlimit="10" d="M 0,0 C 0.241,-2.703 0.387,-4.404 0.387,-4.404" transform="translate(378.719 86.112)" class="colorStroke818181 svgStroke"></path><path fill="none" stroke="#74858e" stroke-linecap="round" stroke-linejoin="round" stroke-miterlimit="10" d="m 0,0 c 0,0 -2.664,-37.063 -0.727,-45.168 1.756,-7.343 2.669,-11.413 2.669,-11.413 0,0 -3.279,-20.643 -1.851,-31.429 0.854,-6.454 1.954,-17.874 2.7,-26.004" transform="translate(375.474 205.151)" class="colorStroke818181 svgStroke"></path><path fill="none" stroke="#74858e" stroke-linecap="round" stroke-linejoin="round" stroke-miterlimit="10" d="M 0,0 C 1.594,0.802 3.261,1.465 4.98,1.919" transform="translate(393.2 224.169)" class="colorStroke818181 svgStroke"></path><path fill="none" stroke="#74858e" stroke-linecap="round" stroke-linejoin="round" stroke-miterlimit="10" d="M 0,0 C 0,0 4.887,6.831 12.076,11.791" transform="translate(377 209.916)" class="colorStroke818181 svgStroke"></path><path fill="none" stroke="#74858e" stroke-linecap="round" stroke-linejoin="round" stroke-miterlimit="10" d="M 0,0 C 0,0 4.538,-5.749 11.497,-9.077" transform="translate(358.353 218.121)" class="colorStroke818181 svgStroke"></path><path fill="none" stroke="#74858e" stroke-linecap="round" stroke-linejoin="round" stroke-miterlimit="10" d="M 0,0 C 0,0 5.72,3.778 12.605,5.646" transform="translate(386.888 222.978)" class="colorStroke818181 svgStroke"></path><path fill="#95a2a9" d="m 0,0 c 0,0 -0.321,-7.201 -1.589,-9.369 -1.267,-2.168 -14.605,-1.495 -19.881,-3.248 -5.275,-1.754 -8.609,-6.113 -10.644,-9.369 -2.035,-3.256 -21.227,-38.979 -20.569,-43.221 0.658,-4.242 0.978,-6.097 7.091,-5.651 6.113,0.446 21.047,17.932 21.047,17.932 l 0.462,-15.701 -8.398,-22.354 c 0,0 11.106,-6.332 31.973,-9.447 20.866,-3.115 33.656,5.784 33.656,5.784 l -3.28,20.945 4.039,16.633 c 0,0 8.79,-18.12 11.584,-22.565 2.794,-4.446 9.44,-3.984 12.75,1.173 3.311,5.159 2.404,8.861 -0.727,15.694 -3.131,6.833 -9.605,27.684 -12.157,32.936 -2.551,5.252 -3.741,9.478 -11.301,12.985 -7.562,3.506 -19.318,4.759 -19.318,4.759 l 0.196,11.458 z" transform="translate(375.89 340.147)" class="color5ae4a7 svgShape"></path><path fill="none" stroke="#24292b" stroke-linecap="round" stroke-linejoin="round" stroke-miterlimit="10" d="m 0,0 c 0,0 -0.321,-7.201 -1.589,-9.369 -1.267,-2.168 -14.605,-1.495 -19.881,-3.248 -5.275,-1.754 -8.609,-6.113 -10.644,-9.369 -2.035,-3.256 -21.227,-38.979 -20.569,-43.221 0.658,-4.242 0.978,-6.097 7.091,-5.651 6.113,0.446 21.047,17.932 21.047,17.932 l 0.462,-15.701 -8.398,-22.354 c 0,0 11.106,-6.332 31.973,-9.447 20.866,-3.115 33.656,5.784 33.656,5.784 l -3.28,20.945 4.039,16.633 c 0,0 8.79,-18.12 11.584,-22.565 2.794,-4.446 9.44,-3.984 12.75,1.173 3.311,5.159 2.404,8.861 -0.727,15.694 -3.131,6.833 -9.605,27.684 -12.157,32.936 -2.551,5.252 -3.741,9.478 -11.301,12.985 -7.562,3.506 -19.318,4.759 -19.318,4.759 l 0.196,11.458 z" transform="translate(375.89 340.147)" class="colorStroke1a2e35 svgStroke"></path><path fill="#24292b" d="m 0,0 -14.934,0.626 c 0,0 -0.321,-7.201 -1.588,-9.369 -0.742,-1.268 -5.613,-1.564 -10.583,-1.943 1.054,-5.763 4.555,-18.827 15.566,-29.483 0,0 16.175,12.421 23.294,26.488 -6.101,1.598 -11.95,2.223 -11.95,2.223 z" transform="translate(390.823 339.522)" class="color1a2e35 svgShape"></path><path fill="none" stroke="#24292b" stroke-linecap="round" stroke-linejoin="round" stroke-miterlimit="10" d="m 0,0 -14.934,0.626 c 0,0 -0.321,-7.201 -1.588,-9.369 -0.742,-1.268 -5.613,-1.564 -10.583,-1.943 1.054,-5.763 4.555,-18.827 15.566,-29.483 0,0 16.175,12.421 23.294,26.488 -6.101,1.598 -11.95,2.223 -11.95,2.223 z" transform="translate(390.823 339.522)" class="colorStroke1a2e35 svgStroke"></path><path fill="none" stroke="#24292b" stroke-linecap="round" stroke-linejoin="round" stroke-miterlimit="10" d="M 0,0 C 0,0 -1.018,7.631 3.053,19.842" transform="translate(348.86 287.34)" class="colorStroke1a2e35 svgStroke"></path><path fill="#ffffff" d="m 0,0 -14.934,0.626 c 0,0 -0.321,-7.201 -1.588,-9.369 -0.41,-0.7 -2.082,-1.103 -4.332,-1.388 -0.082,-2.5 0.057,-8.265 2.625,-13.045 3.381,-6.293 7.225,-10.175 7.225,-10.175 0,0 7.787,6.888 12.093,14.472 1.471,2.592 2.475,4.88 3.172,6.782 -2.649,0.445 -4.456,0.639 -4.456,0.639 z" transform="translate(390.823 339.522)" class="colorfff svgShape"></path><path fill="none" stroke="#24292b" stroke-linecap="round" stroke-linejoin="round" stroke-miterlimit="10" d="m 0,0 -14.934,0.626 c 0,0 -0.321,-7.201 -1.588,-9.369 -0.41,-0.7 -2.082,-1.103 -4.332,-1.388 -0.082,-2.5 0.057,-8.265 2.625,-13.045 3.381,-6.293 7.225,-10.175 7.225,-10.175 0,0 7.787,6.888 12.093,14.472 1.471,2.592 2.475,4.88 3.172,6.782 -2.649,0.445 -4.456,0.639 -4.456,0.639 z" transform="translate(390.823 339.522)" class="colorStroke1a2e35 svgStroke"></path><path fill="#24292b" d="m 0,0 c 1.968,-1.977 4.81,-4.112 8.616,-5.222 2.425,-0.708 4.633,-0.931 6.554,-0.905 L 15.342,3.968 0.408,4.594 C 0.408,4.594 0.308,2.356 0,0" transform="translate(375.481 335.554)" class="color1a2e35 svgShape"></path><path fill="none" stroke="#24292b" stroke-linecap="round" stroke-linejoin="round" stroke-miterlimit="10" d="m 0,0 c 1.968,-1.977 4.81,-4.112 8.616,-5.222 2.425,-0.708 4.633,-0.931 6.554,-0.905 L 15.342,3.968 0.408,4.594 C 0.408,4.594 0.308,2.356 0,0 Z" transform="translate(375.481 335.554)" class="colorStroke1a2e35 svgStroke"></path><path fill="#24292b" d="m 0,0 c 0,0 -3.958,26.706 -24.791,28.977 -20.832,2.271 -39.47,-11.256 -41.8,-20.265 -2.331,-9.009 8.56,-16.476 7.789,-19.671 -0.771,-3.195 -9.433,-2.874 -11.256,-9.561 -1.821,-6.687 6.934,-10.178 6.934,-10.178 0,0 -15.866,0.11 -10.179,-6.933 5.687,-7.043 14.23,-3.331 16.467,-0.958 2.238,2.374 0.992,5.509 0.992,5.509 0,0 7.331,-4.11 14.442,-0.729 7.111,3.382 8.086,9.468 8.086,9.468 0,0 8.847,-6.662 22.79,-0.195 C 3.415,-18.069 1.848,-3.983 0,0" transform="translate(414.777 373.77)" class="color1a2e35 svgShape"></path><path fill="none" stroke="#24292b" stroke-linecap="round" stroke-linejoin="round" stroke-miterlimit="10" d="m 0,0 c 0,0 -3.958,26.706 -24.791,28.977 -20.832,2.271 -39.47,-11.256 -41.8,-20.265 -2.331,-9.009 8.56,-16.476 7.789,-19.671 -0.771,-3.195 -9.433,-2.874 -11.256,-9.561 -1.821,-6.687 6.934,-10.178 6.934,-10.178 0,0 -15.866,0.11 -10.179,-6.933 5.687,-7.043 14.23,-3.331 16.467,-0.958 2.238,2.374 0.992,5.509 0.992,5.509 0,0 7.331,-4.11 14.442,-0.729 7.111,3.382 8.086,9.468 8.086,9.468 0,0 8.847,-6.662 22.79,-0.195 C 3.415,-18.069 1.848,-3.983 0,0 Z" transform="translate(414.777 373.77)" class="colorStroke1a2e35 svgStroke"></path><path fill="#ffffff" d="m 0,0 c 0,0 0.923,-4.464 -1.809,-7.914 -2.73,-3.451 -5.103,-1.428 -5.103,-1.428 l 0.58,9.801 z" transform="translate(406.389 364.958)" class="colorfff svgShape"></path><path fill="none" stroke="#24292b" stroke-linecap="round" stroke-linejoin="round" stroke-miterlimit="10" d="m 0,0 c 0,0 0.923,-4.464 -1.809,-7.914 -2.73,-3.451 -5.103,-1.428 -5.103,-1.428 l 0.58,9.801 z" transform="translate(406.389 364.958)" class="colorStroke1a2e35 svgStroke"></path><path fill="#ffffff" d="M 0,0 C 0,0 -1.314,-4.365 1.102,-8.043 3.517,-11.722 6.06,-9.916 6.06,-9.916 l 0.288,9.814 z" transform="translate(363.129 364.752)" class="colorfff svgShape"></path><path fill="none" stroke="#24292b" stroke-linecap="round" stroke-linejoin="round" stroke-miterlimit="10" d="M 0,0 C 0,0 -1.314,-4.365 1.102,-8.043 3.517,-11.722 6.06,-9.916 6.06,-9.916 l 0.288,9.814 z" transform="translate(363.129 364.752)" class="colorStroke1a2e35 svgStroke"></path><path fill="#ffffff" d="m 0,0 c 0,0 0.161,-15.281 0.898,-20.739 0.738,-5.458 4.552,-17.459 14.917,-16.866 12.092,0.692 14.027,13.391 15.9,18.349 1.873,4.958 2.594,19.689 2.594,19.689 0,0 0.109,15.865 -13.807,18.34 C 6.585,21.248 1.941,12.459 0,0" transform="translate(367.857 370.66)" class="colorfff svgShape"></path><path fill="none" stroke="#24292b" stroke-linecap="round" stroke-linejoin="round" stroke-miterlimit="10" d="m 0,0 c 0,0 0.161,-15.281 0.898,-20.739 0.738,-5.458 4.552,-17.459 14.917,-16.866 12.092,0.692 14.027,13.391 15.9,18.349 1.873,4.958 2.594,19.689 2.594,19.689 0,0 0.109,15.865 -13.807,18.34 C 6.585,21.248 1.941,12.459 0,0 Z" transform="translate(367.857 370.66)" class="colorStroke1a2e35 svgStroke"></path><path fill="#24292b" d="m 0,0 c 0.03,-1.034 -0.525,-1.89 -1.242,-1.911 -0.716,-0.021 -1.321,0.8 -1.352,1.835 -0.03,1.034 0.526,1.89 1.241,1.911 C -0.636,1.856 -0.03,1.035 0,0" transform="translate(378.664 356.268)" class="color1a2e35 svgShape"></path><path fill="#24292b" d="m 0,0 c 0.03,-1.035 -0.525,-1.89 -1.241,-1.911 -0.717,-0.022 -1.322,0.8 -1.353,1.834 -0.03,1.035 0.527,1.89 1.242,1.912 C -0.636,1.856 -0.03,1.034 0,0" transform="translate(391.368 355.777)" class="color1a2e35 svgShape"></path><path fill="none" stroke="#24292b" stroke-linecap="round" stroke-linejoin="round" stroke-miterlimit="10" d="M 0,0 C 0,0 1.789,-1.966 5.213,-0.712" transform="translate(380.63 348.25)" class="colorStroke1a2e35 svgStroke"></path><path fill="none" stroke="#24292b" stroke-linecap="round" stroke-linejoin="round" stroke-miterlimit="10" d="m 0,0 c 0,0 2.983,-3.373 6.721,-2.975 3.738,0.398 5.407,2.467 5.407,2.467" transform="translate(376.969 345.259)" class="colorStroke1a2e35 svgStroke"></path><path fill="#24292b" d="m 0,0 c 0,0 3.891,-4.789 14.841,-4.466 10.95,0.321 18.569,6.026 18.569,6.026 0,0 -6.467,-5.67 -1.28,-5.518 5.187,0.153 9.18,1.712 14.747,8.509 5.568,6.798 4.704,16.578 1.094,21.663 C 44.36,31.3 29.003,33.732 14.476,27.536 -0.051,21.341 -2.763,5.687 0,0" transform="translate(358.28 362.879)" class="color1a2e35 svgShape"></path><path fill="none" stroke="#24292b" stroke-linecap="round" stroke-linejoin="round" stroke-miterlimit="10" d="m 0,0 c 0,0 3.891,-4.789 14.841,-4.466 10.95,0.321 18.569,6.026 18.569,6.026 0,0 -6.467,-5.67 -1.28,-5.518 5.187,0.153 9.18,1.712 14.747,8.509 5.568,6.798 4.704,16.578 1.094,21.663 C 44.36,31.3 29.003,33.732 14.476,27.536 -0.051,21.341 -2.763,5.687 0,0 Z" transform="translate(358.28 362.879)" class="colorStroke1a2e35 svgStroke"></path><path fill="none" stroke="#74858e" stroke-linecap="round" stroke-linejoin="round" stroke-miterlimit="10" d="M 0,0 C -1.547,1.046 -2.469,1.929 -2.469,1.929" transform="translate(362.547 366.83)" class="colorStroke818181 svgStroke"></path><path fill="none" stroke="#74858e" stroke-linecap="round" stroke-linejoin="round" stroke-miterlimit="10" d="m 0,0 c 0,0 -7.383,-9.14 -9.492,-9.492 -2.11,-0.351 -1.758,6.328 -1.758,6.328 0,0 -8.437,-5.976 -16.873,-9.14 -3.89,-1.458 -7.703,-0.601 -10.686,0.747" transform="translate(404.724 376.492)" class="colorStroke818181 svgStroke"></path><path fill="#ffffff" d="m 0,0 c 0,0 -0.294,-8.894 -0.424,-13.895 -0.131,-5.001 1.632,-8.281 4.96,-8.183 3.329,0.098 11.44,-1.885 13.259,2.333 1.819,4.219 -4.856,14.017 -5.802,17.876 -0.946,3.859 -1.566,6.062 -1.566,6.062 L -0.065,2.219 Z" transform="translate(380.297 69.527)" class="colorfff svgShape"></path><path fill="none" stroke="#24292b" stroke-linecap="round" stroke-linejoin="round" stroke-miterlimit="10" d="m 0,0 c 0,0 -0.294,-8.894 -0.424,-13.895 -0.131,-5.001 1.632,-8.281 4.96,-8.183 3.329,0.098 11.44,-1.885 13.259,2.333 1.819,4.219 -4.856,14.017 -5.802,17.876 -0.946,3.859 -1.566,6.062 -1.566,6.062 L -0.065,2.219 Z" transform="translate(380.297 69.527)" class="colorStroke1a2e35 svgStroke"></path><path fill="#ffffff" d="m 0,0 c 0,0 -4.378,3.348 -7.469,3.348 -3.09,0 -4.12,2.318 -5.666,2.833 -1.545,0.515 -1.803,-3.605 0,-4.378 C -11.332,1.03 -9.014,0 -9.014,0 l 1.803,-3.348 9.529,-1.03 z" transform="translate(279.27 297.57)" class="colorfff svgShape"></path><path fill="none" stroke="#24292b" stroke-linecap="round" stroke-linejoin="round" stroke-miterlimit="10" d="m 0,0 c 0,0 -4.378,3.348 -7.469,3.348 -3.09,0 -4.12,2.318 -5.666,2.833 -1.545,0.515 -1.803,-3.605 0,-4.378 C -11.332,1.03 -9.014,0 -9.014,0 l 1.803,-3.348 9.529,-1.03 z" transform="translate(279.27 297.57)" class="colorStroke1a2e35 svgStroke"></path><path fill="#74858e" d="m 0,0 128.447,-10.964 c 4.554,-0.389 8.561,2.987 8.949,7.54 l 1.706,19.978 0.49,5.745 1.586,18.576 L 130.543,31.377 3.604,42.213 c -4.554,0.389 -8.56,-2.988 -8.949,-7.541 L -7.541,8.948 C -7.93,4.395 -4.553,0.389 0,0" transform="translate(267.419 256.233)" class="color818181 svgShape"></path><path fill="#ffffff" d="m 0,0 c 0.547,6.402 -4.2,12.036 -10.603,12.582 -6.402,0.547 -12.035,-4.2 -12.582,-10.603 -0.546,-6.402 4.201,-12.035 10.603,-12.582 C -6.18,-11.149 -0.546,-6.402 0,0" transform="translate(294.129 275.218)" class="colorfff svgShape"></path><path fill="none" stroke="#24292b" stroke-linecap="round" stroke-linejoin="round" stroke-miterlimit="10" stroke-width="2" d="M 0,0 44.301,-3.782" transform="translate(301.099 286.958)" class="colorStroke1a2e35 svgStroke"></path><path fill="none" stroke="#24292b" stroke-linecap="round" stroke-linejoin="round" stroke-miterlimit="10" d="M 0,0 93.805,-8.007" transform="translate(300.384 278.586)" class="colorStroke1a2e35 svgStroke"></path><path fill="none" stroke="#24292b" stroke-linecap="round" stroke-linejoin="round" stroke-miterlimit="10" d="M 0,0 93.805,-8.007" transform="translate(299.794 271.67)" class="colorStroke1a2e35 svgStroke"></path><path fill="none" stroke="#24292b" stroke-linecap="round" stroke-linejoin="round" stroke-miterlimit="10" d="M 0,0 93.805,-8.007" transform="translate(299.14 264.026)" class="colorStroke1a2e35 svgStroke"></path><path fill="#95a2a9" stroke="#24292b" stroke-linecap="round" stroke-linejoin="round" stroke-miterlimit="10" d="m 0,0 c 0,0 5.268,1.621 10.737,2.836 5.47,1.216 12.561,-2.431 14.181,-6.28 1.621,-3.849 0.811,-6.888 -1.216,-9.927 -2.025,-3.038 -5.064,-4.456 -9.723,-3.443 -3.167,0.688 -6.483,4.051 -7.496,6.077 L 5.47,-8.711 c 0,0 -0.81,1.215 -1.62,1.215" transform="translate(410.976 273.42)" class="color5ae4a7 svgShape colorStroke1a2e35 svgStroke"></path><path fill="#ffffff" d="M 0,0 C 0,0 -4.639,5.584 -6.89,4.941 -8.598,4.453 -15.531,2.91 -18.774,2.194 -19.62,2.007 -20.046,1.062 -19.632,0.302 c 0.236,-0.433 0.698,-0.695 1.192,-0.677 L -8.711,0 -7.496,-2.026 -19.589,-4.042 c -0.723,-0.12 -1.234,-0.773 -1.178,-1.503 0.058,-0.752 0.696,-1.327 1.45,-1.307 l 12.512,0.915 -10.831,-4.035 c -1.09,-0.318 -1.356,-1.739 -0.457,-2.431 0.299,-0.23 0.679,-0.328 1.052,-0.272 l 12.26,2.584 -5.348,-4.292 c 0.13,-1.033 0.883,-1.079 1.94,-0.713 l 10.214,3.751 c 0,0 2.432,-1.013 5.268,-1.013 2.836,0 3.443,3.444 1.216,6.686 C 6.28,-2.431 0,0 0,0" transform="translate(408.95 275.446)" class="colorfff svgShape"></path><path fill="none" stroke="#24292b" stroke-linecap="round" stroke-linejoin="round" stroke-miterlimit="10" d="M 0,0 C 0,0 -4.639,5.584 -6.89,4.941 -8.598,4.453 -15.531,2.91 -18.774,2.194 -19.62,2.007 -20.046,1.062 -19.632,0.302 c 0.236,-0.433 0.698,-0.695 1.192,-0.677 L -8.711,0 -7.496,-2.026 -19.589,-4.042 c -0.723,-0.12 -1.234,-0.773 -1.178,-1.503 0.058,-0.752 0.696,-1.327 1.45,-1.307 l 12.512,0.915 -10.831,-4.035 c -1.09,-0.318 -1.356,-1.739 -0.457,-2.431 0.299,-0.23 0.679,-0.328 1.052,-0.272 l 12.26,2.584 -5.348,-4.292 c 0.13,-1.033 0.883,-1.079 1.94,-0.713 l 10.214,3.751 c 0,0 2.432,-1.013 5.268,-1.013 2.836,0 3.443,3.444 1.216,6.686 C 6.28,-2.431 0,0 0,0 Z" transform="translate(408.95 275.446)" class="colorStroke1a2e35 svgStroke"></path><path fill="none" stroke="#24292b" stroke-linecap="round" stroke-linejoin="round" stroke-miterlimit="10" d="M 0,0 C 0,0 3.141,0.561 4.419,0.454" transform="translate(401.454 273.42)" class="colorStroke1a2e35 svgStroke"></path><path fill="none" stroke="#24292b" stroke-linecap="round" stroke-linejoin="round" stroke-miterlimit="10" d="M 0,0 3.621,0.852" transform="translate(402.146 269.508)" class="colorStroke1a2e35 svgStroke"></path><path fill="none" stroke="#24292b" stroke-linecap="round" stroke-linejoin="round" stroke-miterlimit="10" d="M 0,0 3.194,1.171" transform="translate(404.169 265.355)" class="colorStroke1a2e35 svgStroke"></path><path fill="#ffffff" d="m 0,0 v 0 c -0.617,-0.48 -0.797,-1.332 -0.419,-2.015 1.023,-1.85 3.105,-5.167 4.78,-4.98 2.319,0.257 0.516,2.575 0,3.605 C 4.058,-2.781 3.033,-1.363 2.247,-0.305 1.716,0.41 0.702,0.546 0,0" transform="translate(262.031 300.703)" class="colorfff svgShape"></path><path fill="none" stroke="#24292b" stroke-linecap="round" stroke-linejoin="round" stroke-miterlimit="10" d="m 0,0 v 0 c -0.617,-0.48 -0.797,-1.332 -0.419,-2.015 1.023,-1.85 3.105,-5.167 4.78,-4.98 2.319,0.257 0.516,2.575 0,3.605 C 4.058,-2.781 3.033,-1.363 2.247,-0.305 1.716,0.41 0.702,0.546 0,0 Z" transform="translate(262.031 300.703)" class="colorStroke1a2e35 svgStroke"></path><path fill="#ffffff" d="m 0,0 v 0 c -0.617,-0.479 -0.797,-1.332 -0.419,-2.015 1.023,-1.85 3.105,-5.166 4.78,-4.98 2.319,0.258 0.516,2.576 0,3.605 C 4.057,-2.781 3.033,-1.363 2.247,-0.305 1.716,0.41 0.702,0.546 0,0" transform="translate(260.228 296.84)" class="colorfff svgShape"></path><path fill="none" stroke="#24292b" stroke-linecap="round" stroke-linejoin="round" stroke-miterlimit="10" d="m 0,0 v 0 c -0.617,-0.479 -0.797,-1.332 -0.419,-2.015 1.023,-1.85 3.105,-5.166 4.78,-4.98 2.319,0.258 0.516,2.576 0,3.605 C 4.057,-2.781 3.033,-1.363 2.247,-0.305 1.716,0.41 0.702,0.546 0,0 Z" transform="translate(260.228 296.84)" class="colorStroke1a2e35 svgStroke"></path><path fill="#ffffff" d="m 0,0 v 0 c -0.5,-0.389 -0.646,-1.081 -0.34,-1.636 0.831,-1.501 2.52,-4.193 3.881,-4.042 1.881,0.209 0.418,2.091 0,2.927 C 3.294,-2.257 2.463,-1.106 1.824,-0.247 1.393,0.333 0.57,0.444 0,0" transform="translate(257.28 289.691)" class="colorfff svgShape"></path><path fill="none" stroke="#24292b" stroke-linecap="round" stroke-linejoin="round" stroke-miterlimit="10" d="m 0,0 v 0 c -0.5,-0.389 -0.646,-1.081 -0.34,-1.636 0.831,-1.501 2.52,-4.193 3.881,-4.042 1.881,0.209 0.418,2.091 0,2.927 C 3.294,-2.257 2.463,-1.106 1.824,-0.247 1.393,0.333 0.57,0.444 0,0 Z" transform="translate(257.28 289.691)" class="colorStroke1a2e35 svgStroke"></path><path fill="#ffffff" d="m 0,0 v 0 c -0.616,-0.479 -0.796,-1.332 -0.418,-2.015 1.023,-1.85 3.104,-5.166 4.78,-4.98 2.318,0.258 0.515,2.576 0,3.606 C 4.058,-2.781 3.034,-1.363 2.247,-0.304 1.716,0.41 0.703,0.547 0,0" transform="translate(257.91 294.006)" class="colorfff svgShape"></path><path fill="none" stroke="#24292b" stroke-linecap="round" stroke-linejoin="round" stroke-miterlimit="10" d="m 0,0 v 0 c -0.616,-0.479 -0.796,-1.332 -0.418,-2.015 1.023,-1.85 3.104,-5.166 4.78,-4.98 2.318,0.258 0.515,2.576 0,3.606 C 4.058,-2.781 3.034,-1.363 2.247,-0.304 1.716,0.41 0.703,0.547 0,0 Z" transform="translate(257.91 294.006)" class="colorStroke1a2e35 svgStroke"></path></g></g></svg>